<svg id="Layer_2" data-name="Layer 2" xmlns="http://www.w3.org/2000/svg" width="14" height="14" viewBox="0 0 14 14">
  <path id="Path_376" data-name="Path 376" d="M13.035,3.515H11.393V3.26a.468.468,0,1,0-.933,0v.255H5.541V3.26a.468.468,0,1,0-.933,0v.255H2.965A2.066,2.066,0,0,0,1,5.661V14.6A2.066,2.066,0,0,0,2.965,16.75H13.035A2.066,2.066,0,0,0,15,14.6V5.661a2.066,2.066,0,0,0-1.965-2.146ZM2.965,4.534H4.607v.255a.468.468,0,1,0,.933,0V4.534h4.919v.255a.468.468,0,1,0,.933,0V4.534h1.643a1.082,1.082,0,0,1,1.031,1.127V6.869H1.933V5.661A1.082,1.082,0,0,1,2.965,4.534ZM13.035,15.751H2.965a.99.99,0,0,1-.736-.337,1.184,1.184,0,0,1-.3-.81V7.889H14.067V14.6a1.184,1.184,0,0,1-.3.81.99.99,0,0,1-.736.337Z" transform="translate(-1 -2.75)" fill="#707070"/>
</svg>
